HIERARCHY
ROOT Pelvis
{
	OFFSET 0.000000 0.000000 0.000000
	CHANNELS 6 Xposition Yposition Zposition Zrotation Yrotation Xrotation 
	JOINT Left_hip
	{
		OFFSET 0.076090 -0.089427 -0.010735
		CHANNELS 3 Zrotation Yrotation Xrotation
		JOINT Left_knee
		{
			OFFSET 0.030200 -0.359518 -0.003501
			CHANNELS 3 Zrotation Yrotation Xrotation
			JOINT Left_ankle
			{
				OFFSET -0.011005 -0.371022 -0.045888
				CHANNELS 3 Zrotation Yrotation Xrotation
				JOINT Left_foot
				{
					OFFSET 0.023930 -0.052103 0.111084
					CHANNELS 3 Zrotation Yrotation Xrotation
					End Site
					{
						OFFSET 0.000000 0.000000 0.000000
					}
				}
			}
		}
	}
	JOINT Right_hip
	{
		OFFSET -0.073836 -0.088112 -0.007709
		CHANNELS 3 Zrotation Yrotation Xrotation
		JOINT Right_knee
		{
			OFFSET -0.035715 -0.367809 -0.006536
			CHANNELS 3 Zrotation Yrotation Xrotation
			JOINT Right_ankle
			{
				OFFSET 0.013718 -0.371958 -0.043815
				CHANNELS 3 Zrotation Yrotation Xrotation
				JOINT Right_foot
				{
					OFFSET -0.021936 -0.046387 0.114542
					CHANNELS 3 Zrotation Yrotation Xrotation
					End Site
					{
						OFFSET 0.000000 0.000000 0.000000
					}
				}
			}
		}
	}
	JOINT Spine1
	{
		OFFSET -0.001865 0.102064 -0.019455
		CHANNELS 3 Zrotation Yrotation Xrotation
		JOINT Spine2
		{
			OFFSET 0.003082 0.129260 -0.001938
			CHANNELS 3 Zrotation Yrotation Xrotation
			JOINT Spine3
			{
				OFFSET 0.001104 0.048093 0.026561
				CHANNELS 3 Zrotation Yrotation Xrotation
				JOINT Neck
				{
					OFFSET -0.002010 0.204222 -0.047183
					CHANNELS 3 Zrotation Yrotation Xrotation
					JOINT Head
					{
						OFFSET 0.005050 0.063649 0.048489
						CHANNELS 3 Zrotation Yrotation Xrotation
						End Site
						{
							OFFSET 0.000000 0.000000 0.000000
						}
					}
				}
				JOINT Left_collar
				{
					OFFSET 0.072979 0.114065 -0.031633
					CHANNELS 3 Zrotation Yrotation Xrotation
					JOINT Left_shoulder
					{
						OFFSET 0.083419 0.032092 -0.006530
						CHANNELS 3 Zrotation Yrotation Xrotation
						JOINT Left_elbow
						{
							OFFSET 0.239393 -0.012014 -0.025060
							CHANNELS 3 Zrotation Yrotation Xrotation
							JOINT Left_wrist
							{
								OFFSET 0.227297 0.008116 0.000384
								CHANNELS 3 Zrotation Yrotation Xrotation
								JOINT Left_palm
								{
									OFFSET 0.074607 -0.009248 -0.012277
									CHANNELS 3 Zrotation Yrotation Xrotation
									End Site
									{
										OFFSET 0.000000 0.000000 0.000000
									}
								}
							}
						}
					}
				}
				JOINT Right_collar
				{
					OFFSET -0.074980 0.111880 -0.037894
					CHANNELS 3 Zrotation Yrotation Xrotation
					JOINT Right_shoulder
					{
						OFFSET -0.087565 0.034353 -0.009323
						CHANNELS 3 Zrotation Yrotation Xrotation
						JOINT Right_elbow
						{
							OFFSET -0.236838 -0.013719 -0.019794
							CHANNELS 3 Zrotation Yrotation Xrotation
							JOINT Right_wrist
							{
								OFFSET -0.235053 0.006433 -0.003853
								CHANNELS 3 Zrotation Yrotation Xrotation
								JOINT Right_palm
								{
									OFFSET -0.075499 -0.006894 -0.009792
									CHANNELS 3 Zrotation Yrotation Xrotation
									End Site
									{
										OFFSET 0.000000 0.000000 0.000000
									}
								}
							}
						}
					}
				}
			}
		}
	}
}
MOTION
Frames: 11
Frame Time: 0.100000
0.000000 0.000000 0.000000 175.096348 21.048872 -14.637343 1.195942 -0.241171 8.443209 -2.605862 -9.711744 -7.609440 1.689838 8.165313 -6.034932 0.458851 7.798437 -3.164592 2.436432 -0.084484 7.398099 2.365841 7.278075 -5.938436 4.176839 -11.128209 -8.751276 -5.746983 8.413137 6.278850 0.999554 1.834016 0.766455 1.948122 -1.041615 0.876673 0.806248 -1.059076 0.938929 3.908146 2.626112 -5.631949 -2.402370 -5.173059 9.436250 -31.048958 -0.717189 3.109778 -51.257451 -9.306692 10.362072 2.917574 -13.874020 10.223917 -7.444581 -0.391678 1.765463 -10.239075 -5.416143 -10.975366 31.940074 4.273512 4.318078 47.377177 4.201202 14.874476 -6.122069 7.631342 -1.954084 6.262959 -2.305987 1.624705 12.793682 7.739724 -6.849575 
-0.000153 -0.000042 0.000078 175.053681 21.042991 -14.574957 1.243659 -0.252971 8.347417 -2.626316 -9.749560 -7.579119 1.611190 8.144112 -6.063498 0.595123 7.889055 -3.153688 2.473830 -0.090749 7.347196 2.349652 7.267065 -5.991048 4.302096 -11.161620 -8.711236 -5.979531 8.453604 6.119484 0.997400 1.850731 0.793829 1.942704 -1.024734 0.870480 0.846550 -1.063880 0.958474 3.935673 2.622520 -5.715892 -2.409364 -5.237610 9.408806 -31.218409 -0.643366 2.995538 -51.426831 -9.244686 10.084221 3.306560 -12.368640 9.521553 -7.272242 -0.140689 2.025836 -10.219997 -5.460611 -11.134136 31.990386 4.275487 4.248288 47.477675 4.309122 14.928781 -6.288304 7.551044 -2.136406 6.063327 -2.305670 1.654253 12.830450 7.750249 -6.849045 
-0.000297 -0.000004 -0.000057 175.073518 20.864639 -14.494565 1.279005 -0.235851 8.332309 -2.671194 -9.652150 -7.673319 1.460039 8.176453 -6.042813 0.851770 7.860107 -3.237021 2.457361 -0.018035 7.199753 2.388255 7.263913 -5.890189 4.317705 -11.025476 -8.738943 -6.040724 8.333357 6.126799 1.090622 1.796325 0.864620 1.934165 -0.994851 0.910664 0.835910 -1.061013 0.969500 4.028669 2.502731 -5.885345 -2.424697 -5.338054 9.399198 -31.474389 -0.454897 3.099707 -52.131149 -8.920874 10.345907 3.236575 -12.568284 9.689811 -7.305375 -0.338499 1.821608 -10.177023 -5.415950 -11.198311 32.004845 4.339738 4.235018 47.578696 4.542615 14.963958 -6.230346 7.694477 -2.191619 6.037039 -2.225250 1.539789 12.763656 7.687600 -6.864830 
-0.000213 -0.000098 0.000031 175.069667 20.570216 -14.484910 1.332021 -0.298041 8.398557 -2.684827 -9.450262 -7.746551 1.387814 8.380892 -6.025888 1.048691 7.650094 -3.366129 2.492986 0.092806 7.081484 2.454312 7.308248 -5.715606 4.135348 -10.781994 -8.739265 -5.728857 8.006910 6.334474 1.199676 1.797477 0.923405 2.083145 -0.871673 1.080761 0.911271 -0.968594 1.074722 4.092315 2.256059 -5.840694 -2.480002 -5.527357 9.438689 -31.331294 -0.047565 3.390653 -52.831221 -8.350985 11.114878 2.593196 -15.280479 11.224856 -7.561120 -1.057596 1.139610 -10.144913 -5.296869 -11.091689 31.931709 4.349216 4.376759 47.476415 4.696154 14.923519 -6.165749 7.990948 -1.922643 6.018051 -2.131090 1.423426 12.660862 7.596029 -6.970329 
0.000562 -0.000489 0.000372 175.162694 19.871169 -14.411901 1.318306 -0.484555 8.478393 -2.642174 -8.957252 -7.807805 1.152675 9.077296 -5.995497 1.581786 6.665038 -3.593657 2.526109 0.309815 6.875827 2.531824 7.463911 -5.457788 3.925406 -10.214971 -8.637117 -5.159850 7.089038 6.574784 1.328453 1.809121 0.951604 2.615794 -0.534777 1.189185 1.303166 -0.715559 1.529600 3.364177 2.456556 -5.443234 -3.166657 -5.184325 9.480382 -29.243953 1.710618 4.239374 -53.592941 -6.243787 12.868151 1.046834 -24.218063 16.177353 -7.554707 -3.044538 -1.480911 -9.945841 -4.827207 -10.461561 31.289303 3.941598 4.621604 47.042457 4.980266 14.692179 -6.035147 8.543343 -0.891338 5.751579 -1.908735 0.946388 12.369461 7.245232 -7.188210 
0.001689 -0.001142 0.001111 175.361746 18.980210 -14.354384 1.234853 -0.760281 8.554969 -2.583735 -8.413065 -7.758719 1.047598 10.088498 -5.831635 1.977548 4.986576 -3.811922 2.482032 0.506931 6.697384 2.727783 7.607600 -5.128823 3.184424 -9.468503 -8.434994 -3.837633 5.542499 7.227485 1.704995 1.707715 0.865097 3.562438 -0.160666 1.373941 2.022782 -0.336064 2.282085 0.933284 3.256083 -4.094292 -5.124029 -4.123203 9.223152 -24.921981 4.167646 5.928738 -53.541667 -2.632924 15.120703 -3.377766 -36.081752 25.808958 -8.642360 -5.464328 -5.711225 -9.626972 -4.019264 -9.711028 30.153465 3.260252 5.181021 46.037545 5.460192 13.907474 -5.595296 8.664537 0.863895 5.859028 -1.731524 -0.083621 12.133039 6.725282 -7.520885 
0.003756 -0.001632 0.002016 175.593640 18.757639 -14.562462 1.102937 -1.337404 9.039712 -2.621721 -8.322943 -8.095939 0.928531 11.182729 -5.449064 2.407079 3.323411 -3.581617 2.265290 0.586199 6.926888 3.133827 7.738050 -4.943119 2.357046 -9.688511 -8.273779 -2.950492 5.023599 7.873778 1.901620 1.803779 0.827451 4.329287 0.099817 2.069337 2.692967 0.009578 2.978703 -1.632528 3.561129 -2.242025 -6.556366 -3.501103 8.742601 -20.114927 5.531566 8.417241 -51.487037 0.593059 15.549905 -8.478668 -43.230421 30.752840 -9.959447 -8.087807 -13.689455 -8.723666 -3.244639 -8.104389 28.847491 3.391077 6.595054 44.871721 5.670356 13.169159 -4.533960 8.517733 2.112129 6.543260 -1.942862 -2.523248 11.535258 6.194328 -7.311169 
0.007783 -0.002188 0.002514 175.907428 19.571924 -13.784904 1.676816 -3.077180 9.084892 -3.508761 -7.235508 -9.848339 -7.132287 16.308377 -6.347326 13.187356 -9.791953 -1.230798 2.170860 0.352606 5.949947 3.347314 5.630047 -4.237319 9.136712 -8.573793 -7.664911 -12.679692 4.436248 6.156401 0.262317 2.302930 -0.368075 6.423660 -1.260353 4.146492 2.425031 1.472998 1.389075 -4.408215 7.051644 -2.888233 -4.538676 -6.445832 13.023890 -17.896996 4.941934 7.245502 -42.243258 9.167983 23.700021 -24.353025 -58.396535 36.804284 -5.036720 -17.868142 -36.997756 -12.437076 -2.517442 -6.691839 30.478570 3.829371 8.438024 41.703491 5.887317 14.504180 -4.052901 4.478067 -5.062639 9.880169 0.149112 -0.939616 9.892161 5.930355 -9.854969 
0.012155 -0.002715 0.003147 176.000473 21.288782 -14.029433 1.562998 -3.614737 9.155397 -3.397841 -7.794423 -9.790356 -8.195279 17.256927 -6.706817 14.639998 -12.832874 -1.528231 2.065373 -0.267650 6.003124 3.355268 5.394883 -3.675537 9.661969 -8.720361 -8.185838 -13.407517 4.260664 6.298594 0.601013 2.554394 0.117192 6.630204 -1.071545 4.130528 2.787077 2.020668 2.190482 -6.447473 6.811210 -3.187246 -4.295704 -5.605399 14.088209 -16.735452 4.354820 7.716646 -43.954484 10.168306 26.229547 -31.799351 -63.608724 43.388929 7.160500 -15.798341 -44.168075 -14.128935 -2.709211 -5.010614 29.926924 4.579470 9.469307 40.318493 5.805143 13.913358 -2.320069 2.852888 -5.135294 4.778520 0.984211 -0.313375 9.583498 5.945627 -10.256441 
0.018770 -0.002924 0.004942 176.532656 22.224600 -13.920665 1.323072 -3.262285 8.864717 -3.277631 -7.925649 -9.345530 -7.265981 15.943977 -5.944641 13.433366 -11.297331 -2.438005 1.802633 -0.606477 5.577984 3.464979 4.735597 -2.689614 8.852172 -8.263234 -8.543313 -12.352707 3.791561 6.186486 1.737460 2.497378 0.840143 5.665317 -0.234071 3.713710 2.534457 2.280715 2.470080 -6.729460 6.342196 -2.812375 -5.188702 -3.393088 16.101782 -19.106328 3.562129 6.854070 -49.184590 8.233538 26.218939 -25.318846 -61.311444 39.932591 11.157561 -14.163910 -37.365678 -14.307950 -2.970180 -5.766076 29.802222 5.837267 9.723688 39.676558 7.383821 13.726946 -1.783606 2.609859 -1.962903 1.622559 1.951595 3.747937 9.345274 5.769618 -9.958277 
0.028221 -0.002967 0.011215 176.919132 22.830665 -14.517180 1.070299 -2.859509 8.754399 -2.757410 -7.705149 -7.313865 -5.873496 14.384841 -6.152765 11.097899 -8.665510 -2.639409 2.190305 -0.674528 5.696976 3.463685 4.146222 -0.862399 7.073308 -8.091215 -9.609708 -10.540446 4.053417 6.263145 2.711591 2.087920 1.950882 4.410820 0.197757 3.643237 1.906441 2.027940 2.282312 -6.806094 6.152316 -2.093443 -6.779300 -1.180005 18.095916 -22.324698 2.700432 6.697473 -53.643106 5.549046 23.317004 -10.780353 -53.082289 22.477465 10.023581 -13.066743 -37.974761 -12.349758 -2.433915 -3.994393 30.027108 7.605189 9.207718 39.587970 11.822448 13.374893 -1.868649 3.462683 -3.254871 0.228637 3.146394 1.482751 8.828065 5.089980 -7.352232 
